<svg width="32" height="28" viewBox="0 0 32 28" fill="none" xmlns="http://www.w3.org/2000/svg">
<path d="M25.3335 0.500032H13.2752C12.2595 0.496855 11.2567 0.730316 10.3444 1.18235C9.43213 1.63439 8.63476 2.29288 8.01403 3.10688L0.280917 13.1711C0.0988496 13.4081 0 13.6998 0 14C0 14.3002 0.0988496 14.5919 0.280917 14.8289L8.01403 24.8931C8.63476 25.7071 9.43213 26.3656 10.3444 26.8176C11.2567 27.2697 12.2595 27.5031 13.2752 27.5H25.3335C27.1009 27.4978 28.7953 26.786 30.0451 25.5206C31.2948 24.2552 31.9979 22.5395 32 20.75V7.25002C31.9979 5.46047 31.2948 3.74483 30.0451 2.47942C28.7953 1.21402 27.1009 0.502176 25.3335 0.500032V0.500032ZM29.3334 20.75C29.3334 21.8241 28.912 22.8542 28.1619 23.6138C27.4117 24.3733 26.3944 24.8 25.3335 24.8H13.2752C12.6658 24.8021 12.064 24.6622 11.5165 24.3911C10.969 24.1201 10.4905 23.725 10.118 23.2367L3.0235 14L10.118 4.76332C10.4905 4.27495 10.969 3.87994 11.5165 3.60885C12.064 3.33776 12.6658 3.19788 13.2752 3.20003H25.3335C26.3944 3.20003 27.4117 3.62672 28.1619 4.38624C28.912 5.14576 29.3334 6.17589 29.3334 7.25002V20.75ZM22.9429 11.5795L20.5523 14L22.9429 16.4205C23.0703 16.5451 23.1718 16.694 23.2417 16.8587C23.3116 17.0235 23.3484 17.2006 23.3499 17.3799C23.3515 17.5591 23.3177 17.7369 23.2507 17.9028C23.1836 18.0687 23.0846 18.2194 22.9595 18.3462C22.8343 18.4729 22.6854 18.5732 22.5215 18.641C22.3577 18.7089 22.1821 18.7431 22.0051 18.7415C21.8281 18.74 21.6531 18.7027 21.4904 18.632C21.3278 18.5612 21.1806 18.4584 21.0576 18.3294L18.6671 15.9089L16.2765 18.3294C16.025 18.5754 15.6882 18.7114 15.3386 18.7083C14.989 18.7053 14.6546 18.5633 14.4074 18.313C14.1602 18.0627 14.02 17.7241 14.017 17.3701C14.0139 17.0162 14.1483 16.6752 14.3912 16.4205L16.7818 14L14.3912 11.5795C14.1483 11.3248 14.0139 10.9838 14.017 10.6299C14.02 10.2759 14.1602 9.93731 14.4074 9.68701C14.6546 9.43671 14.989 9.29473 15.3386 9.29165C15.6882 9.28858 16.025 9.42465 16.2765 9.67056L18.6671 12.0911L21.0576 9.67056C21.3091 9.42465 21.6459 9.28858 21.9955 9.29165C22.3451 9.29473 22.6795 9.43671 22.9267 9.68701C23.1739 9.93731 23.3141 10.2759 23.3172 10.6299C23.3202 10.9838 23.1858 11.3248 22.9429 11.5795V11.5795Z" fill="#36597D"/>
</svg>
